HIERARCHY
ROOT Hips
{
	OFFSET 0.000000 0.000000 0.000000
	CHANNELS 6 Xposition Yposition Zposition Zrotation Yrotation Xrotation 
	JOINT LHipJoint
	{
		OFFSET 0.000000 0.000000 0.000000
		CHANNELS 3 Zrotation Yrotation Xrotation
		JOINT LeftUpLeg
		{
			OFFSET 1.363060 -1.794630 0.839290
			CHANNELS 3 Zrotation Yrotation Xrotation
			JOINT LeftLeg
			{
				OFFSET 2.448110 -6.726130 0.000000
				CHANNELS 3 Zrotation Yrotation Xrotation
				JOINT LeftFoot
				{
					OFFSET 2.562200 -7.039590 0.000000
					CHANNELS 3 Zrotation Yrotation Xrotation
					JOINT LeftToeBase
					{
						OFFSET 0.157640 -0.433110 2.322550
						CHANNELS 3 Zrotation Yrotation Xrotation
						End Site
						{
							OFFSET 0.000000 0.000000 0.000000
						}
					}
				}
			}
		}
	}
	JOINT RHipJoint
	{
		OFFSET 0.000000 0.000000 0.000000
		CHANNELS 3 Zrotation Yrotation Xrotation
		JOINT RightUpLeg
		{
			OFFSET -1.305520 -1.794630 0.839290
			CHANNELS 3 Zrotation Yrotation Xrotation
			JOINT RightLeg
			{
				OFFSET -2.542530 -6.985550 0.000000
				CHANNELS 3 Zrotation Yrotation Xrotation
				JOINT RightFoot
				{
					OFFSET -2.568260 -7.056230 0.000000
					CHANNELS 3 Zrotation Yrotation Xrotation
					JOINT RightToeBase
					{
						OFFSET -0.164730 -0.452590 2.363150
						CHANNELS 3 Zrotation Yrotation Xrotation
						End Site
						{
							OFFSET 0.000000 0.000000 0.000000
						}
					}
				}
			}
		}
	}
	JOINT LowerBack
	{
		OFFSET 0.000000 0.000000 0.000000
		CHANNELS 3 Zrotation Yrotation Xrotation
		JOINT Spine
		{
			OFFSET 0.028270 2.035590 -0.193380
			CHANNELS 3 Zrotation Yrotation Xrotation
			JOINT Spine1
			{
				OFFSET 0.056720 2.048850 -0.042750
				CHANNELS 3 Zrotation Yrotation Xrotation
				JOINT Neck
				{
					OFFSET 0.000000 0.000000 0.000000
					CHANNELS 3 Zrotation Yrotation Xrotation
					JOINT Neck1
					{
						OFFSET -0.054170 1.746240 0.172020
						CHANNELS 3 Zrotation Yrotation Xrotation
						JOINT Head
						{
							OFFSET 0.104070 1.761360 -0.123970
							CHANNELS 3 Zrotation Yrotation Xrotation
							End Site
							{
								OFFSET 0.000000 0.000000 0.000000
							}
						}
					}
				}
				JOINT LeftShoulder
				{
					OFFSET 0.000000 0.000000 0.000000
					CHANNELS 3 Zrotation Yrotation Xrotation
					JOINT LeftArm
					{
						OFFSET 3.362410 1.200890 -0.311210
						CHANNELS 3 Zrotation Yrotation Xrotation
						JOINT LeftForeArm
						{
							OFFSET 4.983000 -0.000000 -0.000000
							CHANNELS 3 Zrotation Yrotation Xrotation
							JOINT LeftHand
							{
								OFFSET 3.483560 -0.000000 -0.000000
								CHANNELS 3 Zrotation Yrotation Xrotation
								JOINT LeftFingerBase
								{
									OFFSET 0.000000 0.000000 0.000000
									CHANNELS 3 Zrotation Yrotation Xrotation
									JOINT LeftHandIndex1
									{
										OFFSET 0.715260 -0.000000 -0.000000
										CHANNELS 3 Zrotation Yrotation Xrotation
										End Site
										{
											OFFSET 0.000000 0.000000 0.000000
										}
									}
								}
								JOINT LThumb
								{
									OFFSET 0.000000 0.000000 0.000000
									CHANNELS 3 Zrotation Yrotation Xrotation
									End Site
									{
										OFFSET 0.000000 0.000000 0.000000
									}
								}
							}
						}
					}
				}
				JOINT RightShoulder
				{
					OFFSET 0.000000 0.000000 0.000000
					CHANNELS 3 Zrotation Yrotation Xrotation
					JOINT RightArm
					{
						OFFSET -3.136600 1.374050 -0.404650
						CHANNELS 3 Zrotation Yrotation Xrotation
						JOINT RightForeArm
						{
							OFFSET -5.241900 -0.000000 -0.000000
							CHANNELS 3 Zrotation Yrotation Xrotation
							JOINT RightHand
							{
								OFFSET -3.444170 -0.000000 -0.000000
								CHANNELS 3 Zrotation Yrotation Xrotation
								JOINT RightFingerBase
								{
									OFFSET 0.000000 0.000000 0.000000
									CHANNELS 3 Zrotation Yrotation Xrotation
									JOINT RightHandIndex1
									{
										OFFSET -0.622530 -0.000000 -0.000000
										CHANNELS 3 Zrotation Yrotation Xrotation
										End Site
										{
											OFFSET 0.000000 0.000000 0.000000
										}
									}
								}
								JOINT RThumb
								{
									OFFSET 0.000000 0.000000 0.000000
									CHANNELS 3 Zrotation Yrotation Xrotation
									End Site
									{
										OFFSET 0.000000 0.000000 0.000000
									}
								}
							}
						}
					}
				}
			}
		}
	}
}
MOTION
Frames: 9
Frame Time: 0.008333
2.597913 17.321918 0.378609 -175.961213 -46.004070 -174.349929 -13.086890 4.247845 -2.625973 -3.219713 44.945724 -10.263927 -3.283734 -0.556636 1.338260 2.585798 21.446689 1.745085 3.398700 0.000000 -43.326500 7.926529 -2.247064 8.678298 0.220896 18.837245 -16.711003 3.400739 1.230776 1.583440 1.704067 8.842806 9.587163 1.731600 -0.000000 -73.069300 4.099830 -5.812617 -9.808476 1.532551 -6.283961 -4.331546 -1.906749 -6.429101 1.399943 14.197213 -23.474535 -8.176772 -0.264425 -0.009888 -0.006382 0.000000 0.000000 0.000000 23.380797 -3.916420 1.114633 -7.114465 -22.027967 -26.663014 0.860324 -40.769426 -0.053064 4.858931 -4.651542 -0.226380 -0.023890 0.659357 -0.000000 0.000000 0.000000 0.000000 0.000000 0.000000 0.000000 8.074517 -22.608815 -1.962254 23.599598 23.380174 -6.784779 -179.752970 66.954443 179.928661 -8.504745 7.790113 -0.637137 0.141887 -0.618302 -0.000000 0.000000 0.000000 0.000000 0.000000 0.000000 0.000000 
2.602106 17.322013 0.385309 -176.018008 -46.219896 -174.404779 -13.093449 4.226542 -2.589026 -3.172008 44.523292 -10.167637 -3.224548 -0.544565 1.528583 2.634306 21.705005 1.590525 3.398199 -0.000000 -43.128600 7.932757 -2.232117 8.565212 0.280462 18.561110 -16.504288 3.397693 1.227863 1.558966 1.706275 8.900053 9.600068 1.749900 0.000000 -73.069199 4.230286 -5.783103 -9.662641 1.522288 -6.262470 -4.326307 -2.016134 -6.403965 1.353937 13.959190 -23.595017 -7.931607 -0.355278 -0.021831 0.063670 0.000000 0.000000 0.000000 23.114252 -3.782318 0.597256 -8.619967 -21.251256 -27.081214 0.953971 -45.795993 -0.067549 5.857235 -4.937533 -0.288353 -0.014526 0.681849 -0.000000 0.000000 0.000000 0.000000 0.000000 0.000000 0.000000 7.875865 -22.683127 -1.915196 24.136276 22.903987 -6.839033 -179.812526 66.904905 179.929510 -8.526098 7.858983 -0.644307 0.147851 -0.618218 -0.000000 0.000000 0.000000 0.000000 0.000000 0.000000 0.000000 
2.605629 17.322136 0.391557 -176.077342 -46.491981 -174.450135 -13.099949 4.213092 -2.552586 -3.134535 44.141058 -10.080542 -3.177191 -0.533587 1.666299 2.666407 21.854507 1.470277 3.387600 0.000000 -42.982900 7.941181 -2.216591 8.456656 0.328402 18.291218 -16.318491 3.388157 1.223449 1.579295 1.701071 8.887666 9.577988 1.744000 0.000000 -73.040500 4.351376 -5.773990 -9.526604 1.512319 -6.260560 -4.321976 -2.123144 -6.397965 1.312561 13.707190 -23.686669 -7.689159 -0.450392 -0.033949 0.132863 0.000000 0.000000 0.000000 22.886656 -3.667402 0.097908 -10.244869 -20.314352 -27.405117 0.961642 -50.941443 -0.080688 6.725408 -5.138667 -0.343520 -0.004648 0.698773 -0.000000 0.000000 0.000000 0.000000 0.000000 0.000000 0.000000 7.683360 -22.749622 -1.878274 24.673553 22.476122 -6.885068 -179.866203 66.895589 179.930247 -8.560859 7.890756 -0.649678 0.153524 -0.617023 0.000000 0.000000 0.000000 0.000000 0.000000 0.000000 0.000000 
2.608511 17.322094 0.396934 -176.138860 -46.800269 -174.478888 -13.105117 4.206044 -2.521452 -3.109998 43.822745 -10.010447 -3.144313 -0.524070 1.755131 2.680888 21.891965 1.383968 3.366401 -0.000000 -42.900100 7.950936 -2.201844 8.361625 0.356421 18.059528 -16.174588 3.370687 1.215670 1.657698 1.687262 8.797038 9.513918 1.711100 0.000000 -72.980899 4.456593 -5.777210 -9.407046 1.501755 -6.270209 -4.317910 -2.225690 -6.403404 1.282141 13.451972 -23.748229 -7.459679 -0.548081 -0.045932 0.198302 0.000000 0.000000 0.000000 22.689226 -3.564523 -0.361345 -11.911903 -19.251365 -27.598724 0.888157 -56.102487 -0.091165 7.382966 -5.267139 -0.385874 0.005962 0.710537 -0.000000 0.000000 0.000000 0.000000 0.000000 0.000000 0.000000 7.507037 -22.797843 -1.851155 25.189761 22.072734 -6.935310 -179.913659 66.901033 179.930928 -8.599526 7.874888 -0.651447 0.158721 -0.614556 -0.000000 0.000000 0.000000 0.000000 0.000000 0.000000 0.000000 
2.610894 17.321696 0.401154 -176.202856 -47.127104 -174.486818 -13.108081 4.203352 -2.499526 -3.099265 43.583596 -9.962501 -3.127102 -0.516246 1.801780 2.677877 21.821132 1.328094 3.334400 0.000000 -42.877099 7.961181 -2.188767 8.286355 0.359853 17.890490 -16.088801 3.344242 1.202720 1.807013 1.664080 8.625517 9.401697 1.650700 -0.000000 -72.888800 4.541922 -5.784676 -9.307382 1.490133 -6.283463 -4.312776 -2.321732 -6.412656 1.269476 13.203382 -23.783203 -7.254010 -0.645465 -0.057377 0.256887 0.000000 0.000000 0.000000 22.506042 -3.442773 -0.765738 -13.543541 -18.139890 -27.643253 0.749916 -61.148479 -0.098154 7.780778 -5.336599 -0.411414 0.017308 0.717895 -0.000000 0.000000 0.000000 0.000000 0.000000 0.000000 0.000000 7.352874 -22.822919 -1.834269 25.670927 21.675599 -7.000025 -179.954738 66.900720 179.931613 -8.632622 7.806815 -0.648716 0.163220 -0.610772 0.000000 0.000000 0.000000 0.000000 0.000000 0.000000 0.000000 
2.612890 17.320825 0.404056 -176.267152 -47.458053 -174.472325 -13.108497 4.202701 -2.489311 -3.101018 43.427638 -9.937682 -3.124911 -0.510308 1.813925 2.659212 21.655424 1.297798 3.292600 0.000001 -42.911800 7.970818 -2.178047 8.235069 0.336751 17.804337 -16.069094 3.308334 1.183539 2.032387 1.630701 8.370656 9.238904 1.562799 0.000000 -72.763300 4.606054 -5.788880 -9.228863 1.477059 -6.293025 -4.305657 -2.410729 -6.418647 1.278372 12.969693 -23.796613 -7.079347 -0.739641 -0.067953 0.306552 0.000000 0.000000 0.000000 22.324740 -3.277562 -1.108052 -15.084940 -17.050124 -27.535724 0.568988 -65.968628 -0.101299 7.898379 -5.351021 -0.418342 0.029392 0.721583 -0.000000 0.000000 0.000000 0.000000 0.000000 0.000000 0.000000 7.222569 -22.822772 -1.827136 26.110857 21.269644 -7.084925 -179.990027 66.875889 179.932348 -8.651299 7.688119 -0.640685 0.166874 -0.605785 -0.000000 0.000000 0.000000 0.000000 0.000000 0.000000 0.000000 
2.614809 17.319379 0.405620 -176.332293 -47.783974 -174.437059 -13.105946 4.201742 -2.491803 -3.112987 43.348684 -9.933904 -3.135645 -0.506275 1.800231 2.627793 21.413627 1.286765 3.242599 0.000000 -42.992699 7.979436 -2.169712 8.208310 0.287947 17.808939 -16.116585 3.262750 1.157237 2.336988 1.586852 8.037230 9.025103 1.449899 0.000000 -72.604501 4.648503 -5.783862 -9.169642 1.461990 -6.292970 -4.295820 -2.492947 -6.415575 1.309638 12.756712 -23.794528 -6.939581 -0.828048 -0.077419 0.346162 0.000000 0.000000 0.000000 22.136232 -3.049898 -1.388128 -16.503539 -16.042256 -27.286462 0.368220 -70.478253 -0.100697 7.744095 -5.308464 -0.406567 0.042234 0.722254 -0.000000 0.000000 0.000000 0.000000 0.000000 0.000000 0.000000 7.115501 -22.798305 -1.828528 26.509963 20.844199 -7.191646 179.979467 66.818502 179.933177 -8.648757 7.526892 -0.627755 0.169579 -0.599800 -0.000000 0.000000 0.000000 0.000000 0.000000 0.000000 0.000000 
2.616821 17.317368 0.405873 -176.395449 -48.100431 -174.384265 -13.100222 4.198318 -2.506578 -3.131393 43.331313 -9.946770 -3.156040 -0.504020 1.769555 2.587512 21.119802 1.288228 3.186800 0.000000 -43.106700 7.986429 -2.163545 8.205513 0.215654 17.910210 -16.224489 3.207840 1.124043 2.713010 1.531931 7.626021 8.765024 1.314200 -0.000000 -72.411200 4.670298 -5.765763 -9.127166 1.444351 -6.279472 -4.283425 -2.569989 -6.399589 1.360227 12.567935 -23.781876 -6.833601 -0.909082 -0.085698 0.376025 0.000000 0.000000 0.000000 21.939487 -2.765865 -1.609684 -17.788798 -15.133301 -26.918204 0.166360 -74.638561 -0.096728 7.346432 -5.199753 -0.377793 0.055863 0.720294 -0.000000 0.000000 0.000000 0.000000 0.000000 0.000000 0.000000 7.028221 -22.750861 -1.835891 26.874073 20.391881 -7.317067 179.952265 66.724446 179.934125 -8.622244 7.336697 -0.610726 0.171379 -0.593163 -0.000000 0.000000 0.000000 0.000000 0.000000 0.000000 0.000000 
2.619136 17.314851 0.405010 -176.455232 -48.407469 -174.319730 -13.091358 4.190983 -2.531318 -3.152676 43.352232 -9.968319 -3.181793 -0.503499 1.728075 2.542726 20.800689 1.296013 3.128600 0.000001 -43.235300 7.992199 -2.158725 8.221432 0.125665 18.093632 -16.381881 3.144639 1.084281 3.153120 1.466921 7.153070 8.465219 1.162201 -0.000000 -72.188200 4.673342 -5.733118 -9.095908 1.423908 -6.250938 -4.268149 -2.642958 -6.369039 1.426909 12.404009 -23.763736 -6.759727 -0.981332 -0.092728 0.396601 0.000000 0.000000 0.000000 21.733317 -2.422774 -1.780433 -18.941407 -14.348037 -26.459415 -0.022267 -78.424437 -0.090033 6.752512 -5.018752 -0.335327 0.070242 0.716049 -0.000000 0.000000 0.000000 0.000000 0.000000 0.000000 0.000000 6.955789 -22.684818 -1.847589 27.213369 19.913375 -7.456100 179.927412 66.601149 179.935177 -8.572605 7.135253 -0.591298 0.172316 -0.586256 -0.000000 0.000000 0.000000 0.000000 0.000000 0.000000 0.000000 
